<svg xmlns="http://www.w3.org/2000/svg">
  <symbol viewBox="0 0 512 512" id="icon-thinkful">
    <title>thinkful</title>
    <g id="thinkful-masthead">
      <path id="thinkful-Shape" d="M192.1,332.7h38.4V179.6H115.4v-64.2h217.4V77H77v140.6h115.1V332.7L192.1,332.7z" />
      <path id="thinkful-Shape_1_" d="M294.4,179.6v217H192.1V435h140.6V217.6H435V77h-38.4v102.6H294.4L294.4,179.6z" /> </g>
  </symbol>
  <symbol viewBox="0 0 2048 2048" id="icon-adjust">
    <title>adjust</title>
    <path d="M1024 1568v-1088q-148 0-273 73t-198 198-73 273 73 273 198 198 273 73zm768-544q0 209-103 385.5t-279.5 279.5-385.5 103-385.5-103-279.5-279.5-103-385.5 103-385.5 279.5-279.5 385.5-103 385.5 103 279.5 279.5 103 385.5z" />
  </symbol>
  <symbol viewBox="0 0 2048 2048" id="icon-thumbs-up">
    <title>thumbs-up</title>
    <path d="M448 1472q0-26-19-45t-45-19q-27 0-45.5 19t-18.5 45q0 27 18.5 45.5t45.5 18.5q26 0 45-18.5t19-45.5zm160-512v640q0 26-19 45t-45 19h-288q-26 0-45-19t-19-45v-640q0-26 19-45t45-19h288q26 0 45 19t19 45zm1184 0q0 86-55 149 15 44 15 76 3 76-43 137 17 56 0 117-15 57-54 94 9 112-49 181-64 76-197 78h-129q-66 0-144-15.5t-121.5-29-120.5-39.5q-123-43-158-44-26-1-45-19.5t-19-44.5v-641q0-25 18-43.5t43-20.5q24-2 76-59t101-121q68-87 101-120 18-18 31-48t17.5-48.5 13.5-60.5q7-39 12.5-61t19.5-52 34-50q19-19 45-19 46 0 82.5 10.5t60 26 40 40.5 24 45 12 50 5 45 .5 39q0 38-9.5 76t-19 60-27.5 56q-3 6-10 18t-11 22-8 24h277q78 0 135 57t57 135z"
    />
  </symbol>
</svg>