<?xml version="1.0" encoding="utf-8"?>
<!-- Generator: Adobe Illustrator 19.2.0, SVG Export Plug-In . SVG Version: 6.00 Build 0)  -->
<svg version="1.1" id="Layer_1" xmlns="http://www.w3.org/2000/svg" xmlns:xlink="http://www.w3.org/1999/xlink" x="0px" y="0px"
	 viewBox="0 0 2048 2048" style="enable-background:new 0 0 2048 2048;" xml:space="preserve">
<g>
	<path d="M1731.2,1554.4V847.1c0-65.1-52.8-117.8-117.8-117.8h-117.9v117.8v117.8v589.4l-117.8,294.7h471.5L1731.2,1554.4z"/>
	<path d="M552.3,965V847.2V729.4H434.5c-65.1,0-117.8,52.8-117.8,117.8v707.3l-117.8,294.7h471.5l-118.1-294.8V965z"/>
	<path d="M1434.5,670.3h1.9v-59c0-227.8-184.8-412.5-412.6-412.5S611.2,383.5,611.2,611.3v59h1.9H1434.5z M1259.6,493.5
		c32.6,0,58.9,26.4,58.9,58.9c0,32.5-26.4,58.9-58.9,58.9c-32.5,0-58.9-26.4-58.9-58.9C1200.7,519.9,1227,493.5,1259.6,493.5z
		 M1023.9,287.2c65.1,0,117.8,52.8,117.8,117.8s-52.8,117.8-117.8,117.8c-65.1,0-117.8-52.8-117.8-117.8S958.8,287.2,1023.9,287.2z"
		/>
	<path d="M1436.5,729.3H611.2v825.1l117.8,117.8h589.4l117.8-117.8V729.3H1436.5z M1200.7,1200.8H847c-32.6,0-58.9-26.4-58.9-58.9
		c0-32.5,26.4-58.9,58.9-58.9h353.6c32.6,0,58.9,26.4,58.9,58.9C1259.5,1174.4,1233.2,1200.8,1200.7,1200.8z M1200.7,965H847
		c-32.6,0-58.9-26.4-58.9-58.9c0-32.5,26.4-58.9,58.9-58.9h353.6c32.6,0,58.9,26.4,58.9,58.9C1259.6,938.6,1233.2,965,1200.7,965z"
		/>
</g>
</svg>
